<?xml version="1.0" encoding="UTF-8"?>
<svg xmlns="http://www.w3.org/2000/svg" xmlns:xlink="http://www.w3.org/1999/xlink" width="676.908" height="606.708" viewBox="0 0 676.908 606.708">
<path fill-rule="nonzero" fill="rgb(7.450867%, 5.490112%, 26.66626%)" fill-opacity="1" d="M 158.726562 60.617188 L 158.726562 254.03125 L 195.671875 217.085938 L 395.945312 417.359375 L 518.09375 417.359375 Z M 158.726562 60.617188 "/>
<path fill-rule="nonzero" fill="rgb(7.450867%, 5.490112%, 26.66626%)" fill-opacity="1" d="M 158.726562 297.234375 L 158.726562 417.359375 L 280.667969 417.359375 Z M 158.726562 297.234375 "/>
<path fill-rule="nonzero" fill="rgb(8.235168%, 9.803772%, 28.234863%)" fill-opacity="1" d="M 361.019531 216.542969 L 361.019531 132.007812 L 377.167969 148.15625 L 464.703125 60.617188 L 518.089844 60.617188 Z M 361.019531 216.542969 "/>
<path fill-rule="nonzero" fill="rgb(8.235168%, 9.803772%, 28.234863%)" fill-opacity="1" d="M 361.019531 113.125 L 361.019531 60.617188 L 414.320312 60.621094 Z M 361.019531 113.125 "/>
<path fill-rule="nonzero" fill="rgb(7.450867%, 5.490112%, 26.66626%)" fill-opacity="1" d="M 155.28125 467.449219 L 162.609375 467.449219 L 162.609375 482.136719 L 176.382812 467.449219 L 186.007812 467.449219 L 171.378906 482.113281 L 186.757812 503.097656 L 177.179688 503.097656 L 166.195312 487.539062 L 162.609375 491.175781 L 162.609375 503.097656 L 155.28125 503.097656 Z M 155.28125 467.449219 "/>
<path fill-rule="nonzero" fill="rgb(7.450867%, 5.490112%, 26.66626%)" fill-opacity="1" d="M 190.929688 467.449219 L 198.378906 467.449219 L 198.378906 496.6875 L 216.179688 496.6875 L 216.179688 503.097656 L 190.929688 503.097656 Z M 190.929688 467.449219 "/>
<path fill-rule="nonzero" fill="rgb(7.450867%, 5.490112%, 26.66626%)" fill-opacity="1" d="M 243.980469 494.511719 C 245.714844 492.335938 246.578125 489.242188 246.578125 485.226562 C 246.578125 481.226562 245.714844 478.136719 243.980469 475.953125 C 242.246094 473.769531 239.902344 472.675781 236.957031 472.675781 C 234.003906 472.675781 231.648438 473.761719 229.890625 475.941406 C 228.136719 478.117188 227.257812 481.210938 227.257812 485.226562 C 227.257812 489.242188 228.136719 492.335938 229.890625 494.511719 C 231.648438 496.691406 234.003906 497.777344 236.957031 497.777344 C 239.902344 497.777344 242.246094 496.691406 243.980469 494.511719 M 248.636719 499.929688 C 245.941406 502.703125 242.050781 504.089844 236.957031 504.089844 C 231.859375 504.089844 227.964844 502.703125 225.273438 499.929688 C 221.660156 496.527344 219.855469 491.628906 219.855469 485.226562 C 219.855469 478.695312 221.660156 473.796875 225.273438 470.523438 C 227.964844 467.75 231.859375 466.359375 236.957031 466.359375 C 242.050781 466.359375 245.941406 467.75 248.636719 470.523438 C 252.230469 473.796875 254.027344 478.695312 254.027344 485.226562 C 254.027344 491.628906 252.230469 496.527344 248.636719 499.929688 "/>
<path fill-rule="nonzero" fill="rgb(7.450867%, 5.490112%, 26.66626%)" fill-opacity="1" d="M 259.589844 467.449219 L 267.398438 467.449219 L 281.550781 492.308594 L 281.550781 467.449219 L 288.492188 467.449219 L 288.492188 503.097656 L 281.042969 503.097656 L 266.53125 477.804688 L 266.53125 503.097656 L 259.589844 503.097656 Z M 259.589844 467.449219 "/>
<path fill-rule="nonzero" fill="rgb(7.450867%, 5.490112%, 26.66626%)" fill-opacity="1" d="M 302.710938 473.640625 L 302.710938 496.90625 L 309.59375 496.90625 C 313.113281 496.90625 315.566406 495.175781 316.957031 491.707031 C 317.714844 489.804688 318.09375 487.539062 318.09375 484.914062 C 318.09375 481.285156 317.523438 478.5 316.386719 476.554688 C 315.246094 474.613281 312.980469 473.640625 309.59375 473.640625 Z M 316.371094 468.222656 C 318.871094 469.046875 320.894531 470.554688 322.445312 472.746094 C 323.6875 474.519531 324.535156 476.4375 324.984375 478.503906 C 325.4375 480.566406 325.664062 482.535156 325.664062 484.40625 C 325.664062 489.144531 324.710938 493.160156 322.808594 496.449219 C 320.226562 500.882812 316.242188 503.097656 310.851562 503.097656 L 295.480469 503.097656 L 295.480469 467.449219 L 310.851562 467.449219 C 313.0625 467.484375 314.898438 467.742188 316.371094 468.222656 "/>
<path fill-rule="nonzero" fill="rgb(7.450867%, 5.490112%, 26.66626%)" fill-opacity="1" d="M 338.046875 503.097656 L 330.644531 503.097656 L 330.644531 467.449219 L 338.046875 467.449219 Z M 338.046875 503.097656 "/>
<path fill-rule="nonzero" fill="rgb(7.450867%, 5.490112%, 26.66626%)" fill-opacity="1" d="M 345.132812 467.449219 L 352.460938 467.449219 L 352.460938 482.136719 L 366.234375 467.449219 L 375.859375 467.449219 L 361.230469 482.113281 L 376.609375 503.097656 L 367.03125 503.097656 L 356.050781 487.539062 L 352.460938 491.175781 L 352.460938 503.097656 L 345.132812 503.097656 Z M 345.132812 467.449219 "/>
<path fill-rule="nonzero" fill="rgb(7.450867%, 5.490112%, 26.66626%)" fill-opacity="1" d="M 407.144531 473.761719 L 388.277344 473.761719 L 388.277344 481.332031 L 405.59375 481.332031 L 405.59375 487.523438 L 388.277344 487.523438 L 388.277344 496.691406 L 408.015625 496.691406 L 408.015625 503.101562 L 381 503.101562 L 381 467.449219 L 407.144531 467.449219 Z M 407.144531 473.761719 "/>
<path fill-rule="nonzero" fill="rgb(7.450867%, 5.490112%, 26.66626%)" fill-opacity="1" d="M 434.375 503.097656 L 426.972656 503.097656 L 426.972656 467.449219 L 434.375 467.449219 Z M 434.375 503.097656 "/>
<path fill-rule="nonzero" fill="rgb(7.450867%, 5.490112%, 26.66626%)" fill-opacity="1" d="M 441.21875 467.449219 L 449.03125 467.449219 L 463.183594 492.308594 L 463.183594 467.449219 L 470.121094 467.449219 L 470.121094 503.097656 L 462.675781 503.097656 L 448.160156 477.804688 L 448.160156 503.097656 L 441.21875 503.097656 Z M 441.21875 467.449219 "/>
<path fill-rule="nonzero" fill="rgb(7.450867%, 5.490112%, 26.66626%)" fill-opacity="1" d="M 480.515625 471.175781 C 483.386719 468.242188 487.039062 466.773438 491.472656 466.773438 C 497.40625 466.773438 501.746094 468.742188 504.488281 472.675781 C 506.003906 474.882812 506.816406 477.101562 506.929688 479.324219 L 499.480469 479.324219 C 499.007812 477.617188 498.398438 476.328125 497.65625 475.457031 C 496.328125 473.90625 494.363281 473.132812 491.757812 473.132812 C 489.105469 473.132812 487.007812 474.226562 485.476562 476.410156 C 483.945312 478.597656 483.179688 481.6875 483.179688 485.6875 C 483.179688 489.683594 483.988281 492.679688 485.605469 494.671875 C 487.222656 496.664062 489.277344 497.65625 491.769531 497.65625 C 494.324219 497.65625 496.269531 496.800781 497.613281 495.09375 C 498.351562 494.175781 498.96875 492.796875 499.457031 490.957031 L 506.855469 490.957031 C 506.21875 494.84375 504.589844 498.003906 501.964844 500.4375 C 499.339844 502.875 495.980469 504.089844 491.878906 504.089844 C 486.808594 504.089844 482.820312 502.445312 479.917969 499.15625 C 477.011719 495.851562 475.5625 491.320312 475.5625 485.566406 C 475.5625 479.34375 477.210938 474.546875 480.515625 471.175781 "/>
<path fill-rule="nonzero" fill="rgb(7.450867%, 5.490112%, 26.66626%)" fill-opacity="1" d="M 512.199219 495.867188 L 519.527344 495.867188 L 519.527344 503.101562 L 512.199219 503.101562 Z M 512.199219 495.867188 "/>
<path fill-rule="nonzero" fill="rgb(7.450867%, 5.490112%, 26.66626%)" fill-opacity="1" d="M 174.496094 520.769531 L 160.03125 520.769531 L 160.03125 526.574219 L 173.308594 526.574219 L 173.308594 531.320312 L 160.03125 531.320312 L 160.03125 538.347656 L 175.160156 538.347656 L 175.160156 543.265625 L 154.445312 543.265625 L 154.445312 515.929688 L 174.496094 515.929688 Z M 174.496094 520.769531 "/>
<path fill-rule="nonzero" fill="rgb(7.450867%, 5.490112%, 26.66626%)" fill-opacity="1" d="M 187.050781 532.933594 L 194.050781 532.933594 L 190.601562 522.179688 Z M 187.429688 515.929688 L 193.890625 515.929688 L 203.5625 543.265625 L 197.367188 543.265625 L 195.5625 537.644531 L 185.5 537.644531 L 183.644531 543.265625 L 177.671875 543.265625 Z M 187.429688 515.929688 "/>
<path fill-rule="nonzero" fill="rgb(7.450867%, 5.490112%, 26.66626%)" fill-opacity="1" d="M 212.75 520.675781 L 212.75 528.019531 L 218.898438 528.019531 C 220.117188 528.019531 221.035156 527.871094 221.644531 527.574219 C 222.726562 527.054688 223.265625 526.027344 223.265625 524.496094 C 223.265625 522.839844 222.742188 521.726562 221.699219 521.160156 C 221.113281 520.835938 220.230469 520.675781 219.054688 520.675781 Z M 224.558594 516.632812 C 225.5625 517.066406 226.414062 517.703125 227.117188 518.542969 C 227.695312 519.238281 228.152344 520.003906 228.488281 520.84375 C 228.828125 521.683594 228.996094 522.640625 228.996094 523.71875 C 228.996094 525.015625 228.667969 526.292969 228.011719 527.546875 C 227.359375 528.800781 226.277344 529.6875 224.769531 530.207031 C 226.027344 530.714844 226.921875 531.433594 227.445312 532.367188 C 227.972656 533.300781 228.234375 534.726562 228.234375 536.644531 L 228.234375 538.480469 C 228.234375 539.726562 228.285156 540.574219 228.386719 541.019531 C 228.535156 541.726562 228.890625 542.246094 229.441406 542.578125 L 229.441406 543.265625 L 223.136719 543.265625 C 222.960938 542.660156 222.839844 542.167969 222.765625 541.796875 C 222.617188 541.03125 222.535156 540.246094 222.523438 539.441406 L 222.484375 536.902344 C 222.460938 535.160156 222.164062 533.996094 221.582031 533.417969 C 221.003906 532.835938 219.917969 532.546875 218.328125 532.546875 L 212.75 532.546875 L 212.75 543.265625 L 207.167969 543.265625 L 207.167969 515.929688 L 220.242188 515.929688 C 222.113281 515.96875 223.550781 516.199219 224.558594 516.632812 "/>
<path fill-rule="nonzero" fill="rgb(7.450867%, 5.490112%, 26.66626%)" fill-opacity="1" d="M 234.371094 515.929688 L 240.363281 515.929688 L 251.210938 534.988281 L 251.210938 515.929688 L 256.535156 515.929688 L 256.535156 543.265625 L 250.824219 543.265625 L 239.695312 523.871094 L 239.695312 543.265625 L 234.371094 543.265625 Z M 234.371094 515.929688 "/>
<path fill-rule="nonzero" fill="rgb(7.450867%, 5.490112%, 26.66626%)" fill-opacity="1" d="M 282.109375 520.769531 L 267.644531 520.769531 L 267.644531 526.574219 L 280.921875 526.574219 L 280.921875 531.320312 L 267.644531 531.320312 L 267.644531 538.347656 L 282.773438 538.347656 L 282.773438 543.265625 L 262.0625 543.265625 L 262.0625 515.929688 L 282.109375 515.929688 Z M 282.109375 520.769531 "/>
<path fill-rule="nonzero" fill="rgb(7.450867%, 5.490112%, 26.66626%)" fill-opacity="1" d="M 291.34375 534.824219 C 291.519531 536.074219 291.867188 537.007812 292.386719 537.625 C 293.332031 538.75 294.953125 539.3125 297.25 539.3125 C 298.625 539.3125 299.742188 539.164062 300.601562 538.867188 C 302.230469 538.300781 303.046875 537.242188 303.046875 535.699219 C 303.046875 534.796875 302.648438 534.097656 301.847656 533.601562 C 301.050781 533.121094 299.785156 532.695312 298.054688 532.324219 L 295.09375 531.671875 C 292.183594 531.03125 290.1875 530.332031 289.101562 529.578125 C 287.257812 528.316406 286.335938 526.347656 286.335938 523.660156 C 286.335938 521.214844 287.234375 519.179688 289.039062 517.5625 C 290.839844 515.941406 293.488281 515.132812 296.980469 515.132812 C 299.898438 515.132812 302.382812 515.894531 304.441406 517.421875 C 306.5 518.949219 307.582031 521.164062 307.679688 524.070312 L 302.191406 524.070312 C 302.089844 522.425781 301.355469 521.257812 299.984375 520.566406 C 299.074219 520.109375 297.941406 519.878906 296.582031 519.878906 C 295.074219 519.878906 293.871094 520.175781 292.96875 520.769531 C 292.070312 521.363281 291.621094 522.191406 291.621094 523.253906 C 291.621094 524.230469 292.066406 524.960938 292.953125 525.441406 C 293.523438 525.765625 294.734375 526.140625 296.582031 526.574219 L 301.378906 527.707031 C 303.484375 528.199219 305.058594 528.863281 306.109375 529.6875 C 307.738281 530.972656 308.550781 532.835938 308.550781 535.269531 C 308.550781 537.765625 307.585938 539.84375 305.65625 541.492188 C 303.726562 543.144531 300.996094 543.96875 297.472656 543.96875 C 293.875 543.96875 291.046875 543.15625 288.984375 541.53125 C 286.921875 539.902344 285.890625 537.671875 285.890625 534.824219 Z M 291.34375 534.824219 "/>
<path fill-rule="nonzero" fill="rgb(7.450867%, 5.490112%, 26.66626%)" fill-opacity="1" d="M 332.417969 515.929688 L 332.417969 520.769531 L 324.242188 520.769531 L 324.242188 543.265625 L 318.492188 543.265625 L 318.492188 520.769531 L 310.277344 520.769531 L 310.277344 515.929688 Z M 332.417969 515.929688 "/>
<path fill-rule="nonzero" fill="rgb(7.450867%, 5.490112%, 26.66626%)" fill-opacity="1" d="M 360.300781 521.585938 C 359.574219 520.980469 358.5625 520.675781 357.257812 520.675781 L 352.113281 520.675781 L 352.113281 528.726562 L 357.257812 528.726562 C 358.5625 528.726562 359.574219 528.398438 360.300781 527.742188 C 361.023438 527.085938 361.382812 526.046875 361.382812 524.628906 C 361.382812 523.203125 361.023438 522.191406 360.300781 521.585938 M 364.660156 531.433594 C 363.058594 532.769531 360.773438 533.433594 357.804688 533.433594 L 352.113281 533.433594 L 352.113281 543.265625 L 346.4375 543.265625 L 346.4375 515.929688 L 358.175781 515.929688 C 360.878906 515.929688 363.035156 516.632812 364.648438 518.042969 C 366.253906 519.453125 367.058594 521.636719 367.058594 524.589844 C 367.058594 527.816406 366.257812 530.097656 364.660156 531.433594 "/>
<path fill-rule="nonzero" fill="rgb(7.450867%, 5.490112%, 26.66626%)" fill-opacity="1" d="M 376.277344 532.933594 L 383.28125 532.933594 L 379.828125 522.179688 Z M 376.65625 515.929688 L 383.121094 515.929688 L 392.792969 543.265625 L 386.59375 543.265625 L 384.792969 537.644531 L 374.726562 537.644531 L 372.871094 543.265625 L 366.898438 543.265625 Z M 376.65625 515.929688 "/>
<path fill-rule="nonzero" fill="rgb(7.450867%, 5.490112%, 26.66626%)" fill-opacity="1" d="M 408.378906 515.929688 L 414.851562 515.929688 L 405.707031 533.015625 L 405.707031 543.265625 L 399.996094 543.265625 L 399.996094 533.015625 L 390.535156 515.929688 L 397.269531 515.929688 L 402.941406 527.835938 Z M 408.378906 515.929688 "/>
<path fill-rule="nonzero" fill="rgb(7.450867%, 5.490112%, 26.66626%)" fill-opacity="1" d="M 436.246094 515.929688 L 444.464844 515.929688 L 444.464844 543.265625 L 439.140625 543.265625 L 439.140625 524.773438 C 439.140625 524.242188 439.148438 523.5 439.160156 522.539062 C 439.171875 521.582031 439.179688 520.84375 439.179688 520.324219 L 434 543.265625 L 428.449219 543.265625 L 423.304688 520.324219 C 423.304688 520.84375 423.3125 521.582031 423.324219 522.539062 C 423.335938 523.5 423.34375 524.242188 423.34375 524.773438 L 423.34375 543.265625 L 418.019531 543.265625 L 418.019531 515.929688 L 426.332031 515.929688 L 431.308594 537.421875 Z M 436.246094 515.929688 "/>
<path fill-rule="nonzero" fill="rgb(7.450867%, 5.490112%, 26.66626%)" fill-opacity="1" d="M 469.964844 520.769531 L 455.5 520.769531 L 455.5 526.574219 L 468.777344 526.574219 L 468.777344 531.320312 L 455.5 531.320312 L 455.5 538.347656 L 470.628906 538.347656 L 470.628906 543.265625 L 449.914062 543.265625 L 449.914062 515.929688 L 469.964844 515.929688 Z M 469.964844 520.769531 "/>
<path fill-rule="nonzero" fill="rgb(7.450867%, 5.490112%, 26.66626%)" fill-opacity="1" d="M 474.988281 515.929688 L 480.976562 515.929688 L 491.828125 534.988281 L 491.828125 515.929688 L 497.152344 515.929688 L 497.152344 543.265625 L 491.4375 543.265625 L 480.3125 523.871094 L 480.3125 543.265625 L 474.988281 543.265625 Z M 474.988281 515.929688 "/>
<path fill-rule="nonzero" fill="rgb(7.450867%, 5.490112%, 26.66626%)" fill-opacity="1" d="M 522.371094 515.929688 L 522.371094 520.769531 L 514.191406 520.769531 L 514.191406 543.265625 L 508.441406 543.265625 L 508.441406 520.769531 L 500.226562 520.769531 L 500.226562 515.929688 Z M 522.371094 515.929688 "/>
</svg>
